HIERARCHY
ROOT joint_Root
{
	OFFSET 0.0 0.0 0.0
	CHANNELS 6 Xposition Yposition Zposition Zrotation Xrotation Yrotation 
	JOINT Hips
	{
		OFFSET 4.5925 91.4895 -427.239
		CHANNELS 6 Xposition Yposition Zposition Zrotation Xrotation Yrotation 
		JOINT Spine
		{
			OFFSET 15.7357 0.0 0.0
			CHANNELS 6 Xposition Yposition Zposition Zrotation Xrotation Yrotation 
			JOINT Chest
			{
				OFFSET 8.98455 -0.406207 0.0
				CHANNELS 6 Xposition Yposition Zposition Zrotation Xrotation Yrotation 
				JOINT Neck
				{
					OFFSET 16.3773 0.0 0.0
					CHANNELS 6 Xposition Yposition Zposition Zrotation Xrotation Yrotation 
					JOINT Head
					{
						OFFSET 6.45672 0.0 0.0
						CHANNELS 6 Xposition Yposition Zposition Zrotation Xrotation Yrotation 
						End Site
						{
							OFFSET 0.0 0.0 0.0
						}
					}
				}
				JOINT Shoulder_L
				{
					OFFSET 12.9942 -0.242716 4.98039
					CHANNELS 6 Xposition Yposition Zposition Zrotation Xrotation Yrotation 
					JOINT UpperArm_L
					{
						OFFSET 5.34809 0.0 0.0
						CHANNELS 6 Xposition Yposition Zposition Zrotation Xrotation Yrotation 
						JOINT LowerArm_L
						{
							OFFSET 24.3286 1.87007e-05 0.0
							CHANNELS 6 Xposition Yposition Zposition Zrotation Xrotation Yrotation 
							JOINT Hand_L
							{
								OFFSET 22.2916 0.0 0.0
								CHANNELS 6 Xposition Yposition Zposition Zrotation Xrotation Yrotation 
								End Site
								{
									OFFSET 0.0 0.0 0.0
								}
							}
						}
					}
				}
				JOINT Shoulder_R
				{
					OFFSET 12.9945 -0.242716 -4.98039
					CHANNELS 6 Xposition Yposition Zposition Zrotation Xrotation Yrotation 
					JOINT UpperArm_R
					{
						OFFSET -5.34813 0.0 0.0
						CHANNELS 6 Xposition Yposition Zposition Zrotation Xrotation Yrotation 
						JOINT LowerArm_R
						{
							OFFSET -24.3289 0.000322201 0.0
							CHANNELS 6 Xposition Yposition Zposition Zrotation Xrotation Yrotation 
							JOINT Hand_R
							{
								OFFSET -22.2915 -0.000108084 0.0
								CHANNELS 6 Xposition Yposition Zposition Zrotation Xrotation Yrotation 
								End Site
								{
									OFFSET 0.0 0.0 0.0
								}
							}
						}
					}
				}
			}
		}
		JOINT UpperLeg_L
		{
			OFFSET -2.19248 -6.46944 0.0
			CHANNELS 6 Xposition Yposition Zposition Zrotation Xrotation Yrotation 
			JOINT LowerLeg_L
			{
				OFFSET 39.0811 0.0 -1.23785e-05
				CHANNELS 6 Xposition Yposition Zposition Zrotation Xrotation Yrotation 
				JOINT Foot_L
				{
					OFFSET 40.9854 0.0 -1.26872e-05
					CHANNELS 6 Xposition Yposition Zposition Zrotation Xrotation Yrotation 
					JOINT Toes_L
					{
						OFFSET 11.7543 0.0 0.0
						CHANNELS 6 Xposition Yposition Zposition Zrotation Xrotation Yrotation 
						End Site
						{
							OFFSET 0.0 0.0 0.0
						}
					}
				}
			}
		}
		JOINT UpperLeg_R
		{
			OFFSET -2.19251 6.46944 0.0
			CHANNELS 6 Xposition Yposition Zposition Zrotation Xrotation Yrotation 
			JOINT LowerLeg_R
			{
				OFFSET -39.0811 -0.00228153 -0.0401928
				CHANNELS 6 Xposition Yposition Zposition Zrotation Xrotation Yrotation 
				JOINT Foot_R
				{
					OFFSET -40.9854 0.0 0.0
					CHANNELS 6 Xposition Yposition Zposition Zrotation Xrotation Yrotation 
					JOINT Toes_R
					{
						OFFSET -11.7543 0.0 0.0
						CHANNELS 6 Xposition Yposition Zposition Zrotation Xrotation Yrotation 
						End Site
						{
							OFFSET 0.0 0.0 0.0
						}
					}
				}
			}
		}
	}
}
MOTION
Frames:	4
Frame Time:	0.0333333
0.000000 0.000000 0.000000 0.000000 0.000000 -0.000000 -2.254770 91.057300 -6.616290 88.554100 -2.443220 8.576240 15.735700 0.000005 -0.000001 87.845600 75.104300 -88.286000 8.984550 -0.406207 -0.000000 22.003100 -1.144350 -0.662163 16.377300 -0.000001 -0.000001 15.260700 -2.062470 3.573670 6.456720 -0.000001 -0.000000 -17.091300 -1.574000 2.132430 12.994200 -0.242716 4.980390 -89.403100 -2.129680 -74.339100 5.348090 -0.000007 -0.000001 -76.822600 -13.737600 -81.488200 24.328600 0.000019 0.000005 40.425700 -8.696170 -100.065000 22.291600 -0.000001 0.000005 15.157000 5.089710 5.348410 12.994500 -0.242716 -4.980390 90.286000 -1.356860 -78.095500 -5.348130 -0.000001 -0.000004 -70.364200 -16.030400 -78.600700 -24.328900 0.000322 -0.000009 20.752400 -4.742510 -102.309000 -22.291500 -0.000108 -0.000004 29.581100 5.314380 -0.334855 -2.192480 -6.469440 -0.000000 -174.003000 -12.709200 -7.280730 39.081100 -0.000007 -0.000012 -0.103285 0.168612 31.490200 40.985400 -0.000006 -0.000013 0.007855 6.230700 -65.366300 11.754300 -0.000000 0.000003 -0.000219 -0.001997 -16.652700 -2.192510 6.469440 -0.000001 178.215000 22.512500 174.294000 -39.081100 -0.002282 -0.040193 -0.141612 0.250359 30.063400 -40.985400 0.000008 0.000006 5.556030 15.282600 -66.352600 -11.754300 -0.000006 -0.000006 -0.001820 -0.026434 -17.648000
0.000000 0.000000 0.000000 0.000000 0.000000 -0.000000 -2.266120 91.056200 -6.586380 88.561600 -2.455910 8.562110 15.735700 0.000005 -0.000001 87.848600 75.063400 -88.275700 8.984550 -0.406207 -0.000000 22.085000 -1.144260 -0.634731 16.377300 -0.000001 -0.000001 15.497500 -2.016400 3.610890 6.456720 -0.000001 -0.000000 -17.022200 -1.511890 2.084490 12.994200 -0.242716 4.980390 -89.416400 -2.076950 -74.300800 5.348090 -0.000007 -0.000001 -76.926400 -13.698900 -81.526100 24.328600 0.000019 0.000005 40.569100 -8.717760 -100.039000 22.291600 -0.000001 0.000005 15.057200 5.089480 5.353580 12.994500 -0.242716 -4.980390 90.296600 -1.403130 -78.062400 -5.348130 -0.000001 -0.000004 -70.412400 -15.968900 -78.631600 -24.328900 0.000322 -0.000009 20.798200 -4.757820 -102.319000 -22.291500 -0.000108 -0.000004 29.575200 5.310250 -0.217085 -2.192480 -6.469440 -0.000000 -173.989000 -12.726400 -7.267770 39.081100 -0.000007 -0.000012 -0.105988 0.173044 31.487300 40.985400 -0.000006 -0.000013 -0.006314 6.245630 -65.385300 11.754300 -0.000000 0.000003 -0.000237 -0.002139 -16.657800 -2.192510 6.469440 -0.000001 178.224000 22.445900 174.290000 -39.081100 -0.002282 -0.040193 -0.141659 0.250335 30.073800 -40.985400 0.000008 0.000006 5.552510 15.244800 -66.376400 -11.754300 -0.000006 -0.000006 -0.001793 -0.026091 -17.634000
0.000000 0.000000 0.000000 0.000000 0.000000 -0.000000 -2.281800 91.052700 -6.553050 88.580800 -2.483280 8.523770 15.735700 0.000005 -0.000001 87.842700 75.031300 -88.266900 8.984550 -0.406207 -0.000000 22.149100 -1.149300 -0.627229 16.377300 -0.000001 -0.000001 15.706900 -1.984280 3.611810 6.456720 -0.000001 -0.000000 -16.938800 -1.455120 2.098850 12.994200 -0.242716 4.980390 -89.414100 -2.079270 -74.260200 5.348090 -0.000007 -0.000001 -77.047400 -13.669500 -81.512800 24.328600 0.000019 0.000005 40.536800 -8.751530 -100.088000 22.291600 -0.000001 0.000005 15.141000 5.089290 5.358010 12.994500 -0.242716 -4.980390 90.297800 -1.405580 -78.035500 -5.348130 -0.000001 -0.000004 -70.439900 -15.941900 -78.689500 -24.328900 0.000322 -0.000009 20.778600 -4.759960 -102.336000 -22.291500 -0.000108 -0.000004 29.554500 5.309210 -0.187604 -2.192480 -6.469440 -0.000000 -174.003000 -12.729000 -7.281440 39.081100 -0.000007 -0.000012 -0.104596 0.170735 31.493000 40.985400 -0.000006 -0.000013 -0.020396 6.236540 -65.412900 11.754300 -0.000000 0.000003 -0.000234 -0.002114 -16.656900 -2.192510 6.469440 -0.000001 178.227000 22.429000 174.257000 -39.081100 -0.002282 -0.040193 -0.142278 0.251094 30.104400 -40.985400 0.000008 0.000006 5.567570 15.240800 -66.419400 -11.754300 -0.000006 -0.000006 -0.001708 -0.025003 -17.589800
0.000000 0.000000 0.000000 0.000000 0.000000 -0.000000 -2.287390 91.056100 -6.517660 88.603400 -2.498250 8.516900 15.735700 0.000005 -0.000001 87.805300 74.989400 -88.224300 8.984550 -0.406207 -0.000000 22.232100 -1.170860 -0.611831 16.377300 -0.000001 -0.000001 15.965800 -1.932320 3.595540 6.456720 -0.000001 -0.000000 -16.934000 -1.409160 2.097170 12.994200 -0.242716 4.980390 -89.421800 -2.045660 -74.213600 5.348090 -0.000007 -0.000001 -77.173700 -13.633500 -81.533800 24.328600 0.000019 0.000005 40.518400 -8.766670 -100.112000 22.291600 -0.000001 0.000005 15.188800 5.090700 5.325780 12.994500 -0.242716 -4.980390 90.304700 -1.434950 -78.010700 -5.348130 -0.000001 -0.000004 -70.499400 -15.890000 -78.767200 -24.328900 0.000322 -0.000009 20.777000 -4.754750 -102.324000 -22.291500 -0.000108 -0.000004 29.500300 5.309560 -0.197385 -2.192480 -6.469440 -0.000000 -174.010000 -12.771600 -7.237210 39.081100 -0.000007 -0.000012 -0.105831 0.172969 31.460800 40.985400 -0.000006 -0.000013 -0.023904 6.254070 -65.427600 11.754300 -0.000000 0.000003 -0.000239 -0.002147 -16.658100 -2.192510 6.469440 -0.000001 178.215000 22.400800 174.272000 -39.081100 -0.002282 -0.040193 -0.142199 0.251016 30.098700 -40.985400 0.000008 0.000006 5.563250 15.198500 -66.435900 -11.754300 -0.000006 -0.000006 -0.001857 -0.026914 -17.667500
